<svg width="18" height="16" viewBox="0 0 18 16" fill="none" xmlns="http://www.w3.org/2000/svg">
<path d="M17.3333 1.34167C16.5 1.75 15.6833 1.91583 14.8333 2.16667C13.8992 1.1125 12.5142 1.05417 11.1833 1.5525C9.8525 2.05083 8.98083 3.26917 9 4.66667V5.5C6.29583 5.56917 3.8875 4.3375 2.33333 2.16667C2.33333 2.16667 -1.15167 8.36083 5.66666 11.3333C4.10666 12.3725 2.55083 13.0733 0.666664 13C3.42333 14.5025 6.4275 15.0192 9.02833 14.2642C12.0117 13.3975 14.4633 11.1617 15.4042 7.8125C15.6848 6.79389 15.8242 5.74155 15.8183 4.685C15.8167 4.4775 17.0767 2.375 17.3333 1.34083V1.34167Z" stroke="black" stroke-width="1.25" stroke-linecap="round" stroke-linejoin="round"/>
</svg>
